<?xml version="1.0" encoding="UTF-8"?>
<!DOCTYPE svg PUBLIC "-//W3C//DTD SVG 1.1//EN" "http://www.w3.org/Graphics/SVG/1.1/DTD/svg11.dtd">
<!-- Creator: CorelDRAW -->
<svg xmlns="http://www.w3.org/2000/svg" xml:space="preserve" width="2.07954in" height="1.40311in" style="shape-rendering:geometricPrecision; text-rendering:geometricPrecision; image-rendering:optimizeQuality; fill-rule:evenodd; clip-rule:evenodd"
viewBox="0 0 2.07953 1.4031"
 xmlns:xlink="http://www.w3.org/1999/xlink">
 <defs>
  <style type="text/css">
   <![CDATA[
    .fil0 {fill:#999999}
    .fil1 {fill:#CCCCCC}
    .fil2 {fill:red}
    .fil3 {fill:white}
   ]]>
  </style>
 </defs>
 <g id="Layer_x0020_1">
  <metadata id="CorelCorpID_0Corel-Layer"/>
  <polygon class="fil0" points="0.658509,1.4031 1.49284,1.4031 1.62151,0.822261 0.493069,0.843005 "/>
  <path class="fil1" d="M0.37753 0.909382c-0.0912201,-0.858776 1.48089,-0.653072 1.35122,-0.0373384 -0.0288582,0.0958382 -0.225688,0.164712 -0.273208,0.00755115 0.0269212,0.0791375 -0.205373,0.176936 -0.261401,0.00722438 -0.00620864,0.0915941 -0.184539,0.160377 -0.273696,0.00727163 0.0213976,0.0965705 -0.245456,0.15374 -0.265534,-0.00268897 0.00311022,0.145913 -0.250771,0.125759 -0.277381,0.0179802z"/>
  <path class="fil1" d="M0.90404 0.0250314c0.117681,0.0656809 0.0617596,0.121952 0.0926374,0.182928l0.00879524 -0.000586612c-0.00361416,-0.1432 -0.0127992,-0.113255 -0.0381101,-0.168271 -0.0209881,-0.0600037 -0.0922871,-0.0395117 -0.0633226,-0.0140708z"/>
  <path class="fil2" d="M0.986563 0.143842c-0.0625391,-0.00703541 -0.120389,0.0105551 -0.13837,0.0386967 -0.0179802,0.0281456 -0.0125078,0.101433 0.0304881,0.130161 0.0972319,0.0635194 0.189476,0.0758304 0.276739,-0.0257952 0.0609761,-0.0945941 0.0195432,-0.207554 -0.0891178,-0.180586l-0.0797399 0.0375235z"/>
  <path class="fil3" d="M1.10652 0.135913c0.0221731,0.041118 0.0263464,0.0822438 0.0231968,0.12337 0.0338227,-0.0565785 0.0301771,-0.099224 -0.0231968,-0.12337z"/>
  <path class="fil3" d="M0.351829 0.876497c-0.58701,0.358825 -0.403408,0.551148 0.283015,0.322656 0.282341,-0.0939839 0.748391,-0.282208 1.03807,-0.584419 -0.55897,0.510573 -1.93595,0.806418 -1.32108,0.261763z"/>
  <path class="fil3" d="M0.546108 1.28345c0.23181,-0.0046614 0.838831,-0.183594 1.18553,-0.380802 0.143531,-0.0816454 0.300156,-0.186578 0.3387,-0.275672 0.043677,-0.100972 -0.0606297,-0.178239 -0.440368,-0.116543 0.294243,0.00201574 0.264759,0.162314 0.0336337,0.333605 -0.23846,0.176728 -0.689982,0.36568 -1.11749,0.439412z"/>
 </g>
</svg>
